#!OML:ASF H:\Not Pregnant\Project 1\Capture day 1\Session 1\non-pregnant.ASF
:FULLY-SPECIFIED
:DEGREES
1014
root -8.40939 16.4446 -10.4477 5.13743 24.6017 -371.157
lowerback 2.40287 3.86113 11.8337
upperback -4.73075 5.868 0.435123
thorax -5.25081 2.42243 -6.48759
lowerneck 22.5448 -8.46597 -32.9817
upperneck -0.210485 -19.629 39.4542
head 4.24197 -12.1589 20.7218
rclavicle -2.54196e-014 -3.1408e-014
rhumerus -29.1734 -9.60416 -72.8742
rradius 28.9325
rwrist 22.5815
rhand -9.57529 -2.94821
rfingers 7.12502
rthumb 16.3926 -32.2755
lclavicle -2.54196e-014 -3.1408e-014
lhumerus -47.9091 1.81514 80.4235
lradius 46.0229
lwrist 41.727
lhand -12.5939 -10.9281
lfingers 7.12502
lthumb 13.4846 18.6154
rfemur -8.79397 -4.19106 30.8026
rtibia 22.9546
rfoot -22.8345 12.082
rtoes -16.1035
lfemur -46.6341 7.81976 -18.4959
ltibia 38.5279
lfoot -11.8402 5.10374
ltoes -16.8406
1015
root -8.36679 16.4437 -10.3473 5.16635 24.692 -371.21
lowerback 2.35275 3.89602 11.8313
upperback -4.74007 5.90849 0.438264
thorax -5.22471 2.44433 -6.48001
lowerneck 22.5305 -8.486 -32.9737
upperneck -0.188179 -19.6546 39.4479
head 4.2601 -12.1696 20.7091
rclavicle -1.01007e-014 -3.77691e-014
rhumerus -28.9682 -9.56165 -73.0611
rradius 29.0355
rwrist 22.5842
rhand -9.57031 -2.8862
rfingers 7.12502
rthumb 16.3974 -32.2131
lclavicle -1.01007e-014 -3.77691e-014
lhumerus -47.8814 1.7904 80.5767
lradius 45.9127
lwrist 41.6488
lhand -12.4946 -10.8956
lfingers 7.12502
lthumb 13.5804 18.6414
rfemur -8.02898 -4.12723 30.8504
rtibia 22.1978
rfoot -22.72 11.954
rtoes -16.4745
lfemur -46.7261 7.90892 -18.3942
ltibia 36.9325
lfoot -11.7774 5.56534
ltoes -16.5472
1016
root -8.32291 16.4423 -10.2464 5.19942 24.7512 -371.263
lowerback 2.302 3.93347 11.8238
upperback -4.75067 5.95225 0.443459
thorax -5.19964 2.468 -6.46747
lowerneck 22.4942 -8.50398 -32.971
upperneck -0.150846 -19.6754 39.4297
head 4.28277 -12.1751 20.6892
rclavicle 3.18552e-014 3.97569e-015
rhumerus -28.7789 -9.52752 -73.2565
rradius 29.1433
rwrist 22.5863
rhand -9.57366 -2.80066
rfingers 7.12502
rthumb 16.3942 -32.1278
lclavicle 3.18552e-014 3.97569e-015
lhumerus -47.8576 1.77416 80.7171
lradius 45.7638
lwrist 41.5805
lhand -12.4249 -10.8376
lfingers 7.12502
lthumb 13.6475 18.695
rfemur -7.25405 -4.03791 30.8905
rtibia 21.4227
rfoot -22.5797 11.8564
rtoes -16.8879
lfemur -46.8022 8.00824 -18.2719
ltibia 35.4173
lfoot -11.7355 6.12041
ltoes -16.1747
1017
root -8.27736 16.4405 -10.1447 5.2452 24.7825 -371.308
lowerback 2.24337 3.98879 11.8194
upperback -4.77667 6.01925 0.429899
thorax -5.17996 2.50175 -6.47699
lowerneck 22.4884 -8.52042 -32.9419
upperneck -0.113812 -19.6937 39.4116
head 4.29548 -12.1815 20.6682
rclavicle -7.78366e-014 -1.51076e-014
rhumerus -28.6534 -9.55446 -73.4528
rradius 29.2651
rwrist 22.5921
rhand -9.59691 -2.69063
rfingers 7.12502
rthumb 16.3718 -32.0197
lclavicle -7.78366e-014 -1.51076e-014
lhumerus -47.855 1.69719 80.8459
lradius 45.5834
lwrist 41.5178
lhand -12.3946 -10.7613
lfingers 7.12502
lthumb 13.6767 18.7693
rfemur -6.47273 -3.93406 30.914
rtibia 20.626
rfoot -22.4143 11.8009
rtoes -17.3264
lfemur -46.8727 8.11665 -18.1429
ltibia 33.9937
lfoot -11.7109 6.73929
ltoes -15.7495
1018
root -8.23031 16.4385 -10.0426 5.30415 24.7969 -371.359
lowerback 2.17866 4.05241 11.825
upperback -4.8139 6.09761 0.408946
thorax -5.1651 2.53986 -6.49996
lowerneck 22.4823 -8.54201 -32.9001
upperneck -0.0701813 -19.7166 39.3854
head 4.30898 -12.1893 20.6384
rclavicle 2.1593e-014 -1.82882e-014
rhumerus -28.565 -9.62314 -73.652
rradius 29.3978
rwrist 22.6013
rhand -9.62973 -2.57946
rfingers 7.12502
rthumb 16.3402 -31.9111
lclavicle 2.1593e-014 -1.82882e-014
lhumerus -47.8538 1.60032 80.9541
lradius 45.3545
lwrist 41.4277
lhand -12.3615 -10.6716
lfingers 7.12502
lthumb 13.7086 18.8568
rfemur -5.69118 -3.81931 30.9358
rtibia 19.8041
rfoot -22.2177 11.7809
rtoes -17.8571
lfemur -46.952 8.22674 -17.9973
ltibia 32.6715
lfoot -11.7063 7.40364
ltoes -15.3434
1019
root -8.18174 16.4364 -9.9397 5.37423 24.8019 -371.422
lowerback 2.10084 4.11786 11.8397
upperback -4.86176 6.17803 0.388469
thorax -5.15311 2.57807 -6.52667
lowerneck 22.4665 -8.56312 -32.8611
upperneck -0.0158595 -19.7393 39.3522
head 4.32621 -12.1957 20.6043
rclavicle -7.48176e-014 9.14409e-015
rhumerus -28.5129 -9.71674 -73.8546
rradius 29.5443
rwrist 22.6062
rhand -9.6581 -2.46907
rfingers 7.12502
rthumb 16.3129 -31.8029
lclavicle -7.48176e-014 9.14409e-015
lhumerus -47.8577 1.50849 81.0357
lradius 45.0738
lwrist 41.2934
lhand -12.3005 -10.5767
lfingers 7.12502
lthumb 13.7674 18.9478
rfemur -4.90988 -3.69916 30.9621
rtibia 18.9584
rfoot -21.9907 11.795
rtoes -18.4554
lfemur -47.0405 8.33242 -17.8295
ltibia 31.4541
lfoot -11.7228 8.07585
ltoes -14.9877
1020
root -8.1314 16.4343 -9.83563 5.46225 24.8004 -371.47
lowerback 2.00144 4.18674 11.839
upperback -4.91392 6.25932 0.363906
thorax -5.13397 2.6177 -6.54724
lowerneck 22.4421 -8.58697 -32.8197
upperneck 0.0461462 -19.764 39.3107
head 4.34623 -12.2015 20.5633
rclavicle -8.03463e-014 -4.37326e-015
rhumerus -28.4939 -9.84422 -74.0531
rradius 29.7024
rwrist 22.6122
rhand -9.6805 -2.34008
rfingers 7.12502
rthumb 16.2913 -31.6757
lclavicle -8.03463e-014 -4.37326e-015
lhumerus -47.86 1.41612 81.0999
lradius 44.7468
lwrist 41.1411
lhand -12.238 -10.4797
lfingers 7.12502
lthumb 13.8276 19.0407
rfemur -4.12724 -3.58427 30.9677
rtibia 18.093
rfoot -21.7372 11.8477
rtoes -19.1205
lfemur -47.1302 8.43072 -17.6664
ltibia 30.3422
lfoot -11.7639 8.7294
ltoes -14.7097
1021
root -8.07898 16.4325 -9.73023 5.57452 24.7961 -371.496
lowerback 1.8825 4.2636 11.8226
upperback -4.98062 6.34817 0.322591
thorax -5.11726 2.66077 -6.57582
lowerneck 22.4471 -8.61143 -32.762
upperneck 0.104733 -19.7921 39.2705
head 4.35965 -12.2115 20.5225
rclavicle 2.35933e-014 1.70955e-014
rhumerus -28.5334 -10.0295 -74.2494
rradius 29.8776
rwrist 22.6179
rhand -9.69626 -2.22859
rfingers 7.12502
rthumb 16.2761 -31.5655
lclavicle 2.35933e-014 1.70955e-014
lhumerus -47.8736 1.29969 81.1329
lradius 44.3729
lwrist 40.9533
lhand -12.126 -10.3773
lfingers 7.12502
lthumb 13.9356 19.1357
rfemur -3.34995 -3.47353 30.9418
rtibia 17.2191
rfoot -21.4592 11.9393
rtoes -19.8031
lfemur -47.2174 8.50942 -17.5151
ltibia 29.3305
lfoot -11.8142 9.34752
ltoes -14.554
1022
root -8.02462 16.4305 -9.62348 5.70949 24.7876 -371.504
lowerback 1.74006 4.32675 11.7766
upperback -5.04432 6.41444 0.294154
thorax -5.0922 2.69497 -6.57152
lowerneck 22.4038 -8.62952 -32.7496
upperneck 0.186309 -19.8175 39.2261
head 4.39209 -12.2165 20.485
rclavicle 2.07481e-014 -1.39149e-014
rhumerus -28.5729 -10.1969 -74.4471
rradius 30.0599
rwrist 22.615
rhand -9.69678 -2.12624
rfingers 7.12502
rthumb 16.2756 -31.4632
lclavicle 2.07481e-014 -1.39149e-014
lhumerus -47.8817 1.26591 81.1302
lradius 43.9457
lwrist 40.707
lhand -11.9567 -10.2798
lfingers 7.12502
lthumb 14.0987 19.2219
rfemur -2.58685 -3.35781 30.89
rtibia 16.3536
rfoot -21.1572 12.0655
rtoes -20.4421
lfemur -47.2946 8.55659 -17.3602
ltibia 28.4127
lfoot -11.8581 9.91278
ltoes -14.4959
